<svg width="20" height="21" viewBox="0 0 20 21" fill="none" xmlns="http://www.w3.org/2000/svg">
<g opacity="0.7">
<path d="M16.1873 13.0628C15.2342 12.1098 14.0999 11.4043 12.8622 10.9772C14.1878 10.0642 15.0586 8.53627 15.0586 6.80861C15.0586 4.0193 12.7893 1.75 10 1.75C7.21072 1.75 4.94142 4.0193 4.94142 6.80861C4.94142 8.53634 5.81229 10.0643 7.13788 10.9772C5.90023 11.4043 4.76587 12.1098 3.81284 13.0628C2.16017 14.7155 1.25 16.9128 1.25 19.25H2.61719C2.61719 15.1792 5.92911 11.8672 10 11.8672C14.071 11.8672 17.3829 15.1791 17.3829 19.25H18.7501C18.7501 16.9128 17.8399 14.7154 16.1873 13.0628ZM10 10.5C7.96459 10.5 6.30861 8.84402 6.30861 6.80855C6.30861 4.77307 7.96459 3.11712 10 3.11712C12.0355 3.11712 13.6915 4.77307 13.6915 6.80855C13.6915 8.84402 12.0355 10.5 10 10.5V10.5Z" fill="white"/>
</g>
</svg>
