<svg width="126" height="24" viewBox="0 0 126 24" fill="none" xmlns="http://www.w3.org/2000/svg">
<g clip-path="url(#clip0_664_221)">
<path d="M4.28779 11.9468V20.4504H0V3.89062H1.33554L9.88772 12.0174V3.96129H14.1755V20.4975H12.9102L4.28779 11.9468Z" fill="white"/>
<path d="M27.9461 7.70633H21.9948V10.0619H27.4776V13.8309H21.9948V16.5162H28.1571V20.4501H17.707V3.96094H27.9461V7.70633Z" fill="white"/>
<path d="M41.4418 4.24361L44.3237 13.2655H44.394L45.5422 8.46012L47.0652 3.96094H51.5638V4.59695L45.7061 20.615H43.4334L40.5983 13.0771H40.528L37.81 20.615H35.4202L29.5625 4.59695V3.96094H34.0612L35.6076 8.46012L36.8494 13.2655H36.9197L39.6845 4.24361H41.4418Z" fill="white"/>
<path d="M62.785 15.3914C62.785 16.522 64.0737 17.0874 65.3858 17.0874C66.6042 17.0874 67.8929 16.522 67.8929 15.5327C67.8929 13.9545 66.0653 13.8838 64.8704 13.8132C61.8712 13.6246 58.8721 12.4233 58.8721 8.98415C58.8721 5.40365 61.8947 3.58984 65.2453 3.58984C68.4084 3.58984 71.6183 5.40365 71.548 8.98415H67.5414C67.518 7.85346 66.4636 7.38235 65.3155 7.38235C64.3549 7.38235 63.0897 7.64146 63.0897 8.88993C63.0897 9.99703 64.0268 10.2562 65.5967 10.4211C69.0878 10.7273 72.1338 11.5517 72.1338 15.5562C72.1338 19.019 68.7833 20.8328 65.4327 20.8328C61.965 20.8328 58.6378 19.0896 58.7081 15.3914H62.785Z" fill="white"/>
<path d="M84.1537 20.4548V13.8592H79.0691V20.4548H74.7812V3.96565H79.0691V9.92054H84.1537V3.96094H88.4411V20.4501H84.1537V20.4548Z" fill="white"/>
<path d="M111.637 15.1265H106.389V20.4501H102.102V3.96094H112.34V7.70633H106.389V11.3575H111.637V15.1265Z" fill="white"/>
<path d="M113.816 7.72989V3.96094H126.001V7.72989H121.994V20.4501H117.847V7.72989H113.816Z" fill="white"/>
<path d="M99.6261 23.5L91.3555 20.466V3.28902L99.6261 0.5V23.5Z" fill="url(#paint0_linear_664_221)"/>
</g>
<defs>
<linearGradient id="paint0_linear_664_221" x1="91.3555" y1="12" x2="99.6261" y2="12" gradientUnits="userSpaceOnUse">
<stop stop-color="#FFDD2D"/>
<stop offset="1" stop-color="#FFC42D"/>
</linearGradient>
<clipPath id="clip0_664_221">
<rect width="126" height="23" fill="white" transform="translate(0 0.5)"/>
</clipPath>
</defs>
</svg>
