<svg width="20" height="11" viewBox="0 0 20 11" fill="none" xmlns="http://www.w3.org/2000/svg">
<path d="M1.70711 0.592942C1.31658 0.202418 0.683417 0.202418 0.292893 0.592942C-0.0976311 0.983466 -0.0976311 1.61663 0.292893 2.00716L1.70711 0.592942ZM19.7071 2.00716C20.0976 1.61663 20.0976 0.983466 19.7071 0.592942C19.3166 0.202418 18.6834 0.202418 18.2929 0.592942L19.7071 2.00716ZM0.292893 2.00716L8.58579 10.3L10 8.88584L1.70711 0.592942L0.292893 2.00716ZM11.4142 10.3L19.7071 2.00716L18.2929 0.592942L10 8.88584L11.4142 10.3ZM8.58579 10.3C9.36684 11.0811 10.6332 11.0811 11.4142 10.3L10 8.88584L10 8.88584L8.58579 10.3Z" fill="#FFDD2D"/>
</svg>
