<svg width="56" height="56" viewBox="0 0 56 56" fill="none" xmlns="http://www.w3.org/2000/svg">
<g clip-path="url(#clip0_1133_593)">
<path d="M28 56C43.4639 56 56 43.4639 56 28C56 12.5361 43.4639 0 28 0C12.5361 0 0 12.5361 0 28C0 43.4639 12.5361 56 28 56Z" fill="url(#paint0_linear_1133_593)"/>
<path d="M10.4276 29.3698C13.7008 27.5668 17.3545 26.062 20.7684 24.5496C26.6417 22.0723 32.5382 19.6379 38.4943 17.3715C39.6531 16.9854 41.7353 16.6077 41.9395 18.325C41.8277 20.7559 41.3678 23.1725 41.0523 25.5892C40.2516 30.9036 39.3262 36.1998 38.4238 41.4967C38.1129 43.261 35.9027 44.1744 34.4884 43.0453C31.0897 40.7495 27.6648 38.4762 24.3095 36.1272C23.2104 35.0104 24.2296 33.4065 25.2112 32.609C28.0105 29.8503 30.9792 27.5065 33.6322 24.6052C34.3478 22.877 32.2334 24.3335 31.5359 24.7797C27.7037 27.4206 23.9652 30.2227 19.9248 32.5437C17.861 33.6798 15.4555 32.7089 13.3926 32.0749C11.543 31.3091 8.83255 30.5376 10.4274 29.3699L10.4276 29.3698Z" fill="white"/>
</g>
<defs>
<linearGradient id="paint0_linear_1133_593" x1="21.0033" y1="2.3352" x2="7.00326" y2="35" gradientUnits="userSpaceOnUse">
<stop stop-color="#37AEE2"/>
<stop offset="1" stop-color="#1E96C8"/>
</linearGradient>
<clipPath id="clip0_1133_593">
<rect width="56" height="56" fill="white"/>
</clipPath>
</defs>
</svg>
